<?xml version="1.0"?>
<svg xmlns="http://www.w3.org/2000/svg" xmlns:xlink="http://www.w3.org/1999/xlink" version="1.1" id="Capa_1" x="0px" y="0px" viewBox="0 0 512 512" style="enable-background:new 0 0 512 512;" xml:space="preserve" width="512px" height="512px" class=""><g><g>
	<g>
		<path d="M185.105,384.299l-56.521-56.521c-3.903-3.901-10.227-3.901-14.131,0c-3.902,3.902-3.902,10.228,0,14.131l56.522,56.522    c3.904,3.902,10.227,3.902,14.131,0C189.006,394.529,189.006,388.202,185.105,384.299z" data-original="#000000" class="active-path" data-old_color="#000000" fill="#333333"/>
	</g>
</g><g>
	<g>
		<path d="M128.659,285.959c-1.08-5.411-6.343-8.923-11.754-7.843c-26.213,5.229-53.318,10.638-71.727,44.671    c-2.625,4.853-0.818,10.917,4.035,13.542c4.852,2.625,10.916,0.819,13.542-4.034c13.944-25.779,32.45-29.471,58.061-34.581    C126.227,296.632,129.739,291.37,128.659,285.959z" data-original="#000000" class="active-path" data-old_color="#000000" fill="#333333"/>
	</g>
</g><g>
	<g>
		<path d="M508.938,87.703l-14.127-14.125l7.063-7.063c2.362-2.362,3.388-5.75,2.732-9.026l-7.074-35.33    c-0.792-3.955-3.884-7.046-7.838-7.836L454.373,7.26c-3.274-0.657-6.662,0.371-9.024,2.732l-7.065,7.065L424.149,2.925    c-3.901-3.902-10.228-3.901-14.13,0.003c-3.901,3.903-3.9,10.228,0.003,14.13l14.133,14.127l-14.133,14.133l-14.127-14.133    c-3.9-3.904-10.227-3.906-14.13-0.003c-3.903,3.901-3.904,10.226-0.003,14.13l14.13,14.136l-7.065,7.065    c-3.902,3.902-3.902,10.227,0,14.13l0.148,0.148l-98.001,98.517l-3.047-3.047c-0.17-0.169-0.346-0.333-0.526-0.489    c-14.87-12.873-53.904-40.43-95.054-18.405c-24.45,13.056-30.928,29.608-36.645,44.21c-4.328,11.057-8.065,20.607-19.597,29.151    c-5.202,3.851-15.303,5.864-27,8.195c-28.568,5.694-71.739,14.299-99.087,64.861c-27.491,50.823,6.883,110.444,47.909,151.154    c26.647,26.757,55.3,45.006,82.861,52.771c22.556,6.356,47.555,6.372,68.313-4.862c50.55-27.346,59.156-70.499,64.852-99.053    c2.333-11.697,4.348-21.799,8.205-27.006c8.536-11.532,18.086-15.271,29.145-19.601c14.609-5.721,31.165-12.205,44.21-36.652    c18.153-33.915,4-71.296-21.978-99.009l97.832-98.356c3.958,3.803,10.165,3.687,13.984-0.133l7.063-7.063L466.54,130.1    c3.904,3.902,10.227,3.902,14.131,0c3.902-3.902,3.902-10.228,0-14.131l-14.126-14.126l14.136-14.136l14.126,14.126    c3.904,3.902,10.227,3.902,14.131,0C512.84,97.932,512.84,91.605,508.938,87.703z M337.891,311.115    c-9.578,17.949-20.299,22.147-33.873,27.461c-12.17,4.766-25.963,10.167-37.918,26.318c-6.517,8.8-8.938,20.936-11.742,34.989    c-5.555,27.847-12.467,62.505-54.765,85.386c-14.297,7.736-33.255,8.875-53.385,3.204c-24.261-6.836-49.892-23.309-74.162-47.681    c-17.314-17.179-71.689-77.149-44.45-127.504c22.882-42.308,57.556-49.219,85.416-54.771c14.051-2.801,26.187-5.22,34.988-11.734    c16.152-11.968,21.549-25.758,26.312-37.925c5.31-13.568,9.506-24.285,27.456-33.871c28.96-15.502,57.617,3.035,72.289,15.661    l2.826,2.827l-63.314,63.664c-15.42-2.167-31.21,2.976-42.355,14.119c-19.477,19.479-19.477,51.173,0,70.652    c19.522,19.522,51.127,19.525,70.652,0c11.153-11.154,16.295-26.963,14.108-42.394l63.458-63.809    C338.967,256.724,351.676,285.361,337.891,311.115z M227.736,285.386c11.726,11.723,11.664,30.728,0,42.392    c-11.714,11.714-30.677,11.715-42.392,0c-11.687-11.687-11.687-30.704-0.001-42.392    C196.942,273.789,215.941,273.589,227.736,285.386z M248.191,279.002c-1.838-2.774-3.952-5.373-6.325-7.746    c-2.394-2.394-5.019-4.522-7.818-6.372c73.543-73.951,36.914-37.125,169.058-169.965l14.125,14.127    C292.627,234.317,328.91,197.837,248.191,279.002z M438.411,101.716l-28.14-28.14c-0.042-0.042-0.088-0.077-0.13-0.117    l45.557-45.557l23.546,4.709l4.717,23.555C437.679,102.447,448.541,91.585,438.411,101.716z" data-original="#000000" class="active-path" data-old_color="#000000" fill="#333333"/>
	</g>
</g><g>
	<g>
		<path d="M100.567,356.035c-3.867-3.866-10.228-3.901-14.129,0c-4.435,4.435-3.75,11.836,1.52,15.377    c4.24,2.753,9.398,1.962,12.609-1.249C104.42,366.31,104.496,359.963,100.567,356.035z" data-original="#000000" class="active-path" data-old_color="#000000" fill="#333333"/>
	</g>
</g><g>
	<g>
		<path d="M128.822,384.293c-3.83-3.833-10.189-3.94-14.128-0.001c-4.453,4.453-3.689,11.964,1.519,15.377    c3.974,2.652,9.274,2.098,12.609-1.239C132.73,394.52,132.717,388.187,128.822,384.293z" data-original="#000000" class="active-path" data-old_color="#000000" fill="#333333"/>
	</g>
</g><g>
	<g>
		<path d="M157.088,412.557c-3.825-3.825-10.155-3.974-14.128,0c-3.905,3.905-3.903,10.225,0,14.128    c3.889,3.889,10.234,3.894,14.128,0C161.038,422.734,160.924,416.394,157.088,412.557z" data-original="#000000" class="active-path" data-old_color="#000000" fill="#333333"/>
	</g>
</g></g> </svg>
