<?xml version="1.0"?>
<svg xmlns="http://www.w3.org/2000/svg" xmlns:xlink="http://www.w3.org/1999/xlink" version="1.1" id="Layer_1" x="0px" y="0px" viewBox="0 0 511.928 511.928" style="enable-background:new 0 0 511.928 511.928;" xml:space="preserve" width="512px" height="512px" class=""><g><g>
	<g>
		<path d="M507.728,277.479l-74.224-56.477c-5.765-14.498-32.448-75.232-81.896-95.729c-0.688-0.289-1.375-0.563-2.062-0.844    l12.764-51.57c0.875-3.586-0.141-7.374-2.718-10.015c-2.594-2.641-6.344-3.758-9.952-2.961    c-2.984,0.656-66.647,15.209-102.658,55.462c-5.327-0.266-10.67-0.422-15.951-0.422c-31.167,0-62.538,4.655-93.222,13.834    c-24.496,7.327-48.603,17.536-71.678,30.347C26.762,180.96,4.171,202.7,3.234,203.614c-3.952,3.836-4.327,10.046-0.875,14.334    L187.412,448.3c2.047,2.545,5.109,3.998,8.312,3.998c0.625,0,1.25-0.063,1.875-0.172c50.478-9.029,81.271-34.791,98.221-54.82    c14.732-17.389,21.826-33.51,24.263-39.807l25.356-24.199c18.388,4.154,71.678,15.857,89.315,15.857    c22.513,0,52.696-22.264,56.07-24.795c1.156-0.875,2.14-2,2.858-3.279l5.313-9.406c0,0,0.016-0.016,0.016-0.031l11.545-20.435    C513.165,286.57,511.962,280.711,507.728,277.479z M434.756,327.829c-15.031,0.001-69.962-11.934-90.005-16.559l-34.918-8.998    c-5.702-1.484-11.529,1.953-12.998,7.654c-1.469,5.703,1.969,11.531,7.671,12.998l16.467,4.234l-17.435,16.639    c-1.281,1.219-2.234,2.734-2.781,4.438c-0.063,0.172-5.766,17.309-21.825,36.01c-20.06,23.355-46.588,38.697-78.927,45.666    L25.357,212.527c9.28-7.765,27.121-21.505,51.743-35.112c21.685-11.983,44.307-21.513,67.256-28.348    c28.559-8.499,57.727-12.811,86.676-12.811c1.219,0,2.453,0.023,3.672,0.039c0.344,3.124,2.046,6.077,4.921,7.881    c4.983,3.133,11.576,1.633,14.701-3.351c13.67-21.739,38.479-36.729,59.961-46.307c-10.296,17.92-21.778,42.955-26.199,70.967    c-0.906,5.813,3.062,11.272,8.873,12.194c0.563,0.086,1.125,0.133,1.672,0.133c5.172,0,9.701-3.758,10.529-9.015    c3.781-23.966,13.686-45.924,22.779-62.022l-11.671,47.142c-1.422,5.718,2.077,11.498,7.796,12.912    c0.859,0.211,1.719,0.313,2.563,0.313c4.796,0,9.139-3.241,10.342-8.101l3.391-13.67c45.743,19.701,70.006,85.246,70.256,85.902    c0.688,1.93,1.938,3.625,3.562,4.867l41.886,31.869l-2.219,22.404c-0.375,3.826,1.328,7.545,4.468,9.764l12.951,9.123    C464.126,317.175,445.458,327.829,434.756,327.829z M486.216,290.93l-6.531-4.609l0.313-3.141l7.406,5.641L486.216,290.93z" data-original="#000000" class="active-path" data-old_color="#000000" fill="#333333"/>
	</g>
</g><g>
	<g>
		<path d="M373.278,199.138c-5.891,0-10.655,4.772-10.655,10.662s4.765,10.671,10.655,10.671c5.889,0,10.67-4.781,10.67-10.671    S379.167,199.138,373.278,199.138z" data-original="#000000" class="active-path" data-old_color="#000000" fill="#333333"/>
	</g>
</g></g> </svg>
